<svg xmlns="http://www.w3.org/2000/svg" viewBox="0 0 800 600">
  <!-- Background Patterns -->
  <defs>
    <pattern id="grid" width="40" height="40" patternUnits="userSpaceOnUse">
      <path d="M 40 0 L 0 0 0 40" fill="none" stroke="#FFD84D" stroke-width="1" opacity="0.2"/>
    </pattern>
  </defs>
  <rect width="800" height="600" fill="#1E8A6E"/>
  <rect width="800" height="600" fill="url(#grid)"/>

  <!-- Decorative Circles -->
  <circle cx="700" cy="100" r="180" fill="#FFD84D" opacity="0.1"/>
  <circle cx="100" cy="500" r="120" fill="#FFD84D" opacity="0.1"/>

  <!-- Graduation Cap -->
  <g transform="translate(400, 250) scale(1.2)">
    <!-- Cap Base -->
    <path d="M-100 0 L100 0 L60 40 L-60 40Z" fill="#FFD84D"/>
    <!-- Cap Top -->
    <rect x="-20" y="-60" width="40" height="60" fill="#FFD84D"/>
    <!-- Cap Board -->
    <rect x="-120" y="0" width="240" height="10" fill="#FFD84D"/>
    <!-- Tassel -->
    <path d="M20 -60 Q30 -30 40 0" stroke="#FFD84D" stroke-width="4" fill="none"/>
  </g>

  <!-- Paper Airplane -->
  <g transform="translate(500, 350) rotate(-30)">
    <path d="M0 0 L40 -20 L80 0 L40 20Z" fill="white" opacity="0.9"/>
    <path d="M40 -20 L40 20" stroke="white" stroke-width="2" opacity="0.5"/>
  </g>

  <!-- Globe Lines -->
  <g transform="translate(300, 400)">
    <circle cx="0" cy="0" r="60" fill="none" stroke="white" stroke-width="2" opacity="0.3"/>
    <path d="M-60 0 Q0 -30 60 0 Q0 30 -60 0" fill="none" stroke="white" stroke-width="2" opacity="0.3"/>
    <path d="M0 -60 Q30 0 0 60 Q-30 0 0 -60" fill="none" stroke="white" stroke-width="2" opacity="0.3"/>
  </g>

  <!-- Abstract Path Lines -->
  <path d="M100 100 Q200 50 300 100 T500 100" stroke="white" stroke-width="2" fill="none" opacity="0.2"/>
  <path d="M150 150 Q250 100 350 150 T550 150" stroke="white" stroke-width="2" fill="none" opacity="0.2"/>
</svg>