<svg width="200" height="200" viewBox="0 0 200 200" fill="none" xmlns="http://www.w3.org/2000/svg">
  <!-- Main Building Base -->
  <path d="M40 140 L160 140 L160 80 L40 80 Z" fill="#1E8A6E" opacity="0.1"/>
  
  <!-- Building Columns -->
  <rect x="50" y="85" width="10" height="55" fill="#1E8A6E" opacity="0.2"/>
  <rect x="80" y="85" width="10" height="55" fill="#1E8A6E" opacity="0.2"/>
  <rect x="110" y="85" width="10" height="55" fill="#1E8A6E" opacity="0.2"/>
  <rect x="140" y="85" width="10" height="55" fill="#1E8A6E" opacity="0.2"/>
  
  <!-- Roof -->
  <path d="M30 80 L100 40 L170 80 Z" fill="#1E8A6E" opacity="0.15"/>
  
  <!-- Windows -->
  <rect x="60" y="95" width="8" height="12" rx="1" fill="#1E8A6E" opacity="0.3"/>
  <rect x="90" y="95" width="8" height="12" rx="1" fill="#1E8A6E" opacity="0.3"/>
  <rect x="120" y="95" width="8" height="12" rx="1" fill="#1E8A6E" opacity="0.3"/>
  
  <rect x="60" y="115" width="8" height="12" rx="1" fill="#1E8A6E" opacity="0.3"/>
  <rect x="90" y="115" width="8" height="12" rx="1" fill="#1E8A6E" opacity="0.3"/>
  <rect x="120" y="115" width="8" height="12" rx="1" fill="#1E8A6E" opacity="0.3"/>
  
  <!-- Door -->
  <path d="M90 140 L110 140 L110 110 L90 110 Z" fill="#1E8A6E" opacity="0.2"/>
  
  <!-- Decorative Elements -->
  <circle cx="100" cy="60" r="5" fill="#1E8A6E" opacity="0.25"/>
  <path d="M95 70 L105 70 L100 65 Z" fill="#1E8A6E" opacity="0.2"/>
  
  <!-- Steps -->
  <rect x="85" y="140" width="30" height="5" fill="#1E8A6E" opacity="0.15"/>
  <rect x="80" y="145" width="40" height="5" fill="#1E8A6E" opacity="0.2"/>
  
  <!-- Decorative Trees -->
  <circle cx="40" cy="150" r="10" fill="#1E8A6E" opacity="0.1"/>
  <circle cx="160" cy="150" r="10" fill="#1E8A6E" opacity="0.1"/>
  
  <!-- Additional Architectural Details -->
  <path d="M30 80 L40 80 L40 140 L30 140 Z" fill="#1E8A6E" opacity="0.05"/>
  <path d="M160 80 L170 80 L170 140 L160 140 Z" fill="#1E8A6E" opacity="0.05"/>
  
  <!-- Top Ornament -->
  <circle cx="100" cy="40" r="3" fill="#1E8A6E" opacity="0.3"/>
  <rect x="99" y="30" width="2" height="10" fill="#1E8A6E" opacity="0.2"/>
</svg>