<svg xmlns="http://www.w3.org/2000/svg" viewBox="0 0 1000 500">
  <defs>
    <style>
      .world-map { fill: #B8D4E3; opacity: 0.6; }
    </style>
  </defs>
  
  <!-- World Map Silhouette -->
  <g class="world-map">
    <!-- North America -->
    <path d="M50 150 Q80 120 120 130 Q160 140 180 160 Q200 180 220 200 Q240 220 250 240 Q260 260 240 280 Q220 300 200 290 Q180 280 160 270 Q140 260 120 250 Q100 240 80 230 Q60 220 50 200 Z"/>
    
    <!-- South America -->
    <path d="M180 280 Q200 300 210 320 Q220 340 215 360 Q210 380 200 400 Q190 420 180 430 Q170 440 160 430 Q150 420 155 400 Q160 380 165 360 Q170 340 175 320 Q180 300 180 280 Z"/>
    
    <!-- Europe -->
    <path d="M400 120 Q420 110 440 115 Q460 120 480 130 Q500 140 510 150 Q520 160 515 170 Q510 180 500 175 Q490 170 480 165 Q470 160 460 155 Q450 150 440 145 Q430 140 420 135 Q410 130 400 125 Z"/>
    
    <!-- Africa -->
    <path d="M420 180 Q440 170 460 175 Q480 180 500 190 Q520 200 530 220 Q540 240 535 260 Q530 280 525 300 Q520 320 510 340 Q500 360 490 370 Q480 380 470 375 Q460 370 455 350 Q450 330 445 310 Q440 290 435 270 Q430 250 425 230 Q420 210 420 190 Z"/>
    
    <!-- Asia -->
    <path d="M520 100 Q560 90 600 95 Q640 100 680 110 Q720 120 760 130 Q800 140 830 150 Q860 160 880 170 Q900 180 910 190 Q920 200 915 210 Q910 220 900 215 Q890 210 880 205 Q870 200 860 195 Q850 190 840 185 Q830 180 820 175 Q810 170 800 165 Q790 160 780 155 Q770 150 760 145 Q750 140 740 135 Q730 130 720 125 Q710 120 700 115 Q690 110 680 105 Q670 100 660 95 Q650 90 640 85 Q630 80 620 85 Q610 90 600 95 Q590 100 580 105 Q570 110 560 115 Q550 120 540 115 Q530 110 520 105 Z"/>
    
    <!-- Australia -->
    <path d="M750 350 Q780 340 810 345 Q840 350 860 360 Q880 370 890 380 Q900 390 895 400 Q890 410 880 405 Q870 400 860 395 Q850 390 840 385 Q830 380 820 375 Q810 370 800 365 Q790 360 780 355 Q770 350 760 345 Q750 340 750 350 Z"/>
    
    <!-- Greenland -->
    <path d="M300 50 Q320 40 340 45 Q360 50 370 60 Q380 70 375 80 Q370 90 360 85 Q350 80 340 75 Q330 70 320 65 Q310 60 300 55 Z"/>
    
    <!-- Additional landmasses and islands -->
    <path d="M150 100 Q170 95 180 105 Q190 115 185 125 Q180 135 170 130 Q160 125 155 115 Q150 105 150 100 Z"/>
    <path d="M850 250 Q870 245 880 255 Q890 265 885 275 Q880 285 870 280 Q860 275 855 265 Q850 255 850 250 Z"/>
    <path d="M650 300 Q670 295 680 305 Q690 315 685 325 Q680 335 670 330 Q660 325 655 315 Q650 305 650 300 Z"/>
  </g>
</svg>